<svg width="20" height="25" viewBox="0 0 20 25" fill="none" xmlns="http://www.w3.org/2000/svg">
<path d="M13 12.75V20.25C13 23.25 12.25 24 9.25 24H4.75C1.75 24 1 23.25 1 20.25V12.75C1 9.75 1.75 9 4.75 9H9.25C12.25 9 13 9.75 13 12.75Z" stroke="#222F5D" stroke-width="1.125" stroke-linecap="round" stroke-linejoin="round"/>
<path d="M8.5 11.625H5.5" stroke="#222F5D" stroke-width="1.125" stroke-linecap="round" stroke-linejoin="round"/>
<path d="M6.99984 21.825C7.64187 21.825 8.16234 21.3045 8.16234 20.6625C8.16234 20.0205 7.64187 19.5 6.99984 19.5C6.35781 19.5 5.83734 20.0205 5.83734 20.6625C5.83734 21.3045 6.35781 21.825 6.99984 21.825Z" stroke="#222F5D" stroke-width="1.125" stroke-linecap="round" stroke-linejoin="round"/>
<circle cx="10.5" cy="9.5" r="9.5" fill="#AFAFAF" fill-opacity="0.29"/>
</svg>
