<svg width="21" height="21" viewBox="0 0 21 21" fill="none" xmlns="http://www.w3.org/2000/svg">
<path d="M10.5234 14.9038C10.2784 15.143 10.1384 15.4872 10.1734 15.8547C10.2259 16.4847 10.8034 16.9455 11.4334 16.9455H12.5418V17.6397C12.5418 18.8472 11.5559 19.833 10.3484 19.833H3.65177C2.44427 19.833 1.45844 18.8472 1.45844 17.6397V13.7138C1.45844 12.5063 2.44427 11.5205 3.65177 11.5205H10.3484C11.5559 11.5205 12.5418 12.5063 12.5418 13.7138V14.5538H11.3634C11.0368 14.5538 10.7393 14.6822 10.5234 14.9038Z" stroke="#222F5D" stroke-width="0.875" stroke-linecap="round" stroke-linejoin="round"/>
<path d="M1.45844 14.2388V11.573C1.45844 10.8788 1.88427 10.2604 2.53177 10.0154L7.16343 8.26544C7.88677 7.99127 8.6626 8.52796 8.6626 9.30379V11.5205" stroke="#222F5D" stroke-width="0.875" stroke-linecap="round" stroke-linejoin="round"/>
<path d="M13.1593 15.1492V16.3509C13.1593 16.6717 12.9026 16.9342 12.576 16.9459H11.4326C10.8026 16.9459 10.2251 16.485 10.1726 15.855C10.1376 15.4875 10.2776 15.1434 10.5226 14.9042C10.7385 14.6825 11.036 14.5542 11.3626 14.5542H12.576C12.9026 14.5659 13.1593 14.8283 13.1593 15.1492Z" stroke="#222F5D" stroke-width="0.875" stroke-linecap="round" stroke-linejoin="round"/>
<path d="M4.08331 14H8.16665" stroke="#222F5D" stroke-width="0.875" stroke-linecap="round" stroke-linejoin="round"/>
<circle cx="11.5" cy="9.5" r="9.5" fill="#AFAFAF" fill-opacity="0.29"/>
</svg>
