<svg width="19" height="21" viewBox="0 0 19 21" fill="none" xmlns="http://www.w3.org/2000/svg">
<path d="M5.83335 9.62484V17.4998C5.83335 18.1298 5.57668 18.7073 5.16834 19.1273L5.14502 19.1507C5.09252 19.2032 5.03419 19.2557 4.98169 19.2965C4.80669 19.4482 4.60835 19.5648 4.40418 19.6465C4.34001 19.6757 4.27585 19.699 4.21169 19.7223C3.98419 19.7982 3.73919 19.8332 3.50002 19.8332C3.34252 19.8332 3.18503 19.8157 3.03336 19.7865C2.95753 19.769 2.88169 19.7515 2.80585 19.7282C2.71252 19.699 2.62502 19.6698 2.53752 19.629C2.53752 19.6232 2.53752 19.6232 2.53168 19.629C2.36835 19.5473 2.21086 19.454 2.06503 19.3432L2.05919 19.3373C1.98335 19.279 1.91336 19.2207 1.84919 19.1507C1.78503 19.0807 1.72085 19.0107 1.65668 18.9348C1.54585 18.789 1.45252 18.6315 1.37086 18.4682C1.37669 18.4623 1.37669 18.4623 1.37086 18.4623C1.37086 18.4623 1.37085 18.4565 1.36502 18.4507C1.33002 18.369 1.30085 18.2815 1.27168 18.194C1.24835 18.1182 1.23085 18.0423 1.21335 17.9665C1.18418 17.8148 1.16669 17.6573 1.16669 17.4998V9.62484C1.16669 8.74984 1.75002 8.1665 2.62502 8.1665H4.37502C5.25002 8.1665 5.83335 8.74984 5.83335 9.62484Z" stroke="#222F5D" stroke-width="0.875" stroke-linecap="round" stroke-linejoin="round"/>
<path d="M12.8333 16.6248V18.3748C12.8333 19.2498 12.25 19.8332 11.375 19.8332H3.5C3.73917 19.8332 3.98417 19.7982 4.21167 19.7223C4.27583 19.699 4.33999 19.6757 4.40416 19.6465C4.60833 19.5648 4.80667 19.4482 4.98167 19.2965C5.03417 19.2557 5.0925 19.2032 5.145 19.1507L5.16832 19.1273L9.135 15.1665H11.375C12.25 15.1665 12.8333 15.7498 12.8333 16.6248Z" stroke="#222F5D" stroke-width="0.875" stroke-linecap="round" stroke-linejoin="round"/>
<path d="M2.80578 19.7285C2.45578 19.6235 2.12329 19.431 1.84912 19.151C1.56912 18.8768 1.37661 18.5443 1.27161 18.1943C1.49911 18.9235 2.07661 19.501 2.80578 19.7285Z" stroke="#222F5D" stroke-width="0.875" stroke-linecap="round" stroke-linejoin="round"/>
<path d="M10.7158 13.5857L9.13495 15.1666L5.16827 19.1274C5.57661 18.7074 5.83328 18.1299 5.83328 17.4999V11.8649L7.41411 10.2841C8.03244 9.66573 8.86078 9.66573 9.47912 10.2841L10.7158 11.5207C11.3341 12.1391 11.3341 12.9674 10.7158 13.5857Z" stroke="#222F5D" stroke-width="0.875" stroke-linecap="round" stroke-linejoin="round"/>
<path d="M3.50002 18.0832C3.82219 18.0832 4.08335 17.822 4.08335 17.4998C4.08335 17.1777 3.82219 16.9165 3.50002 16.9165C3.17785 16.9165 2.91669 17.1777 2.91669 17.4998C2.91669 17.822 3.17785 18.0832 3.50002 18.0832Z" stroke="#222F5D" stroke-width="0.875" stroke-linecap="round" stroke-linejoin="round"/>
<circle cx="9.5" cy="9.5" r="9.5" fill="#AFAFAF" fill-opacity="0.29"/>
</svg>
