<svg width="20" height="22" viewBox="0 0 20 22" fill="none" xmlns="http://www.w3.org/2000/svg">
<circle cx="10.5" cy="9.5" r="9.5" fill="#AFAFAF" fill-opacity="0.29"/>
<path d="M12.8334 21.271H1.16669C0.92752 21.271 0.729187 21.0727 0.729187 20.8335C0.729187 20.5943 0.92752 20.396 1.16669 20.396H12.8334C13.0725 20.396 13.2709 20.5943 13.2709 20.8335C13.2709 21.0727 13.0725 21.271 12.8334 21.271Z" fill="#222F5D"/>
<path d="M2.15845 20.8331H1.28345L1.31262 13.8156C1.31262 13.3198 1.54011 12.8589 1.93095 12.5556L6.01428 9.37643C6.59178 8.92726 7.40262 8.92726 7.98595 9.37643L12.0693 12.5498C12.4543 12.8531 12.6876 13.3256 12.6876 13.8156V20.8331H11.8126V13.8214C11.8126 13.5998 11.7076 13.3839 11.5326 13.2439L7.44928 10.0706C7.18678 9.86643 6.81928 9.86643 6.55095 10.0706L2.46762 13.2498C2.29262 13.3839 2.18762 13.5998 2.18762 13.8214L2.15845 20.8331Z" fill="#222F5D"/>
<path d="M9.91665 21.2707H4.08331C3.84415 21.2707 3.64581 21.0723 3.64581 20.8332V15.2915C3.64581 14.5682 4.23498 13.979 4.95831 13.979H9.04165C9.76498 13.979 10.3541 14.5682 10.3541 15.2915V20.8332C10.3541 21.0723 10.1558 21.2707 9.91665 21.2707ZM4.52081 20.3957H9.47915V15.2915C9.47915 15.0523 9.28081 14.854 9.04165 14.854H4.95831C4.71915 14.854 4.52081 15.0523 4.52081 15.2915V20.3957Z" fill="#222F5D"/>
<path d="M5.83331 18.7915C5.59415 18.7915 5.39581 18.5932 5.39581 18.354V17.479C5.39581 17.2398 5.59415 17.0415 5.83331 17.0415C6.07248 17.0415 6.27081 17.2398 6.27081 17.479V18.354C6.27081 18.5932 6.07248 18.7915 5.83331 18.7915Z" fill="#222F5D"/>
<path d="M7.875 12.8125H6.125C5.88583 12.8125 5.6875 12.6142 5.6875 12.375C5.6875 12.1358 5.88583 11.9375 6.125 11.9375H7.875C8.11417 11.9375 8.3125 12.1358 8.3125 12.375C8.3125 12.6142 8.11417 12.8125 7.875 12.8125Z" fill="#222F5D"/>
</svg>
