<svg width="24" height="24" viewBox="0 0 24 24" fill="none" xmlns="http://www.w3.org/2000/svg">
<path d="M5.3999 2.1001H18.5999C19.6999 2.1001 20.5999 3.0001 20.5999 4.1001V6.3001C20.5999 7.1001 20.0999 8.1001 19.5999 8.6001L15.2999 12.4001C14.6999 12.9001 14.2999 13.9001 14.2999 14.7001V19.0001C14.2999 19.6001 13.8999 20.4001 13.3999 20.7001L11.9999 21.6001C10.6999 22.4001 8.8999 21.5001 8.8999 19.9001V14.6001C8.8999 13.9001 8.4999 13.0001 8.0999 12.5001L4.2999 8.5001C3.7999 8.0001 3.3999 7.1001 3.3999 6.5001V4.2001C3.3999 3.0001 4.2999 2.1001 5.3999 2.1001Z" stroke="#AFAFAF" stroke-width="1.5" stroke-miterlimit="10" stroke-linecap="round" stroke-linejoin="round"/>
<path opacity="0.4" d="M10.93 2.1001L6 10.0001" stroke="#AFAFAF" stroke-width="1.5" stroke-miterlimit="10" stroke-linecap="round" stroke-linejoin="round"/>
</svg>
